<?xml version="1.0" encoding="utf-8"?>
<!-- Generator: Adobe Illustrator 25.4.1, SVG Export Plug-In . SVG Version: 6.00 Build 0)  -->
<svg version="1.1" id="Camada_1" xmlns="http://www.w3.org/2000/svg" xmlns:xlink="http://www.w3.org/1999/xlink" x="0px" y="0px"
	 viewBox="0 0 396.92 111.16" style="enable-background:new 0 0 396.92 111.16;" xml:space="preserve">
<style type="text/css">
	.st0{fill:#FFFFFF;}
	.st1{fill-rule:evenodd;clip-rule:evenodd;fill:#1D2647;}
	.st2{fill-rule:evenodd;clip-rule:evenodd;fill:#ADADB0;}
	.st3{fill:url(#SVGID_1_);}
	.st4{fill-rule:evenodd;clip-rule:evenodd;fill:url(#SVGID_00000181806190469431698470000017760828575813921164_);}
	.st5{fill-rule:evenodd;clip-rule:evenodd;fill:#616160;}
	.st6{fill-rule:evenodd;clip-rule:evenodd;fill:#006EB7;}
	.st7{fill-rule:evenodd;clip-rule:evenodd;fill:#FFD500;}
	.st8{fill-rule:evenodd;clip-rule:evenodd;fill:#ED6B10;}
	.st9{fill-rule:evenodd;clip-rule:evenodd;fill:#C62140;}
	.st10{fill-rule:evenodd;clip-rule:evenodd;fill:#009982;}
	.st11{fill-rule:evenodd;clip-rule:evenodd;fill:#F9B000;}
	.st12{fill:#616160;}
</style>
<g>
	<g>
		<g>
			<path class="st0" d="M110.23,84.41V70.03h6.69l0.04,1.73h-4.78v4.46h4.74v1.7h-4.74v4.79h5.46v1.72H110.23z"/>
			<path class="st0" d="M124.23,84.63c-2.95,0-5.42-1.73-5.42-5.26c0-3.21,2.38-5.55,5.46-5.55c0.68,0,1.16,0.06,1.55,0.15v-5.02
				h1.95v14.91C127.03,84.28,125.78,84.63,124.23,84.63z M125.82,75.68c-0.39-0.13-0.74-0.22-1.46-0.22c-1.96,0-3.6,1.46-3.6,3.8
				c0,2.19,1.27,3.76,3.73,3.76c0.48,0,1.02-0.11,1.33-0.24V75.68z"/>
			<path class="st0" d="M137.03,84.41l-0.41-1.05c-0.76,0.65-1.92,1.27-3.3,1.27c-1.38,0-3.26-0.72-3.26-3.76v-6.79h1.95v6.64
				c0,1.58,0.68,2.3,1.94,2.3c1.16,0,2.08-0.7,2.51-1.2v-7.73h1.92v6.48c0,2.71,0.07,3.39,0.22,3.84H137.03z"/>
			<path class="st0" d="M145.29,84.63c-3.23,0-4.89-2.45-4.89-5.28c0-2.95,1.86-5.53,5.19-5.53c1.09,0,2.05,0.3,2.73,0.68
				l-0.02,1.73c-0.67-0.46-1.55-0.79-2.66-0.79c-2.03,0-3.3,1.61-3.3,3.8c0,2.12,1.18,3.78,3.27,3.78c1.07,0,1.86-0.35,2.53-0.76
				l0.55,1.33C147.91,84.11,146.67,84.63,145.29,84.63z"/>
			<path class="st0" d="M156.43,84.41l-0.42-0.98c-0.66,0.62-1.64,1.2-3.12,1.2c-1.75,0-3.24-1.22-3.24-3.21
				c0-2.07,1.51-3.3,4.22-3.38l2.01-0.07c0-0.13,0-0.33,0-0.39c0-1.6-0.92-2.17-2.14-2.17c-1.26,0-2.12,0.48-2.71,0.9l-0.72-1.31
				c1.29-0.92,2.45-1.18,3.78-1.18c2.16,0,3.73,0.92,3.73,3.58v3.47c0,2.45,0.07,3.17,0.22,3.54H156.43z M155.89,79.52l-1.88,0.07
				c-1.71,0.06-2.4,0.63-2.4,1.68c0,0.99,0.63,1.75,1.9,1.75c1.2,0,1.95-0.57,2.38-1.01V79.52z"/>
			<path class="st0" d="M164.56,84.63c-3.23,0-4.89-2.45-4.89-5.28c0-2.95,1.86-5.53,5.2-5.53c1.09,0,2.05,0.3,2.73,0.68l-0.02,1.73
				c-0.68-0.46-1.55-0.79-2.66-0.79c-2.03,0-3.3,1.61-3.3,3.8c0,2.12,1.18,3.78,3.28,3.78c1.07,0,1.85-0.35,2.53-0.76l0.55,1.33
				C167.18,84.11,165.93,84.63,164.56,84.63z"/>
			<path class="st0" d="M171.77,70.83c0,0.7-0.59,1.29-1.29,1.29c-0.72,0-1.28-0.57-1.28-1.29c0-0.68,0.57-1.26,1.28-1.26
				C171.18,69.57,171.77,70.13,171.77,70.83z M169.52,84.41V74.09h1.93v10.33H169.52z"/>
			<path class="st0" d="M181.67,75.22c0.92,0.96,1.42,2.36,1.42,4.02c0,1.66-0.53,3.08-1.47,4.04c-0.85,0.87-2.03,1.36-3.43,1.36
				c-1.35,0-2.49-0.44-3.34-1.27c-0.96-0.96-1.49-2.42-1.49-4.11c0-1.68,0.53-3.08,1.46-4.06c0.85-0.88,2.01-1.37,3.38-1.37
				C179.63,73.83,180.81,74.32,181.67,75.22z M175.33,79.22c0,2.3,1.09,3.82,2.9,3.82c1.81,0,2.86-1.55,2.86-3.82
				c0-2.29-1.05-3.8-2.91-3.8C176.34,75.41,175.33,76.95,175.33,79.22z"/>
			<path class="st0" d="M191.69,84.41v-6.27c0-1.2-0.2-2.56-1.7-2.56c-1.14,0-2.21,0.74-3.01,1.45v7.38h-1.92V74.09h1.62l0.24,1.18
				c1.18-0.87,2.23-1.44,3.67-1.44c1.5,0,3.06,1.03,3.06,3.67v6.92H191.69z"/>
			<path class="st0" d="M202.19,84.41l-0.41-0.98c-0.66,0.62-1.64,1.2-3.13,1.2c-1.75,0-3.23-1.22-3.23-3.21
				c0-2.07,1.51-3.3,4.22-3.38l2.01-0.07c0-0.13,0-0.33,0-0.39c0-1.6-0.92-2.17-2.14-2.17c-1.26,0-2.12,0.48-2.71,0.9l-0.72-1.31
				c1.29-0.92,2.45-1.18,3.78-1.18c2.16,0,3.73,0.92,3.73,3.58v3.47c0,2.45,0.07,3.17,0.22,3.54H202.19z M201.65,79.52l-1.88,0.07
				c-1.7,0.06-2.4,0.63-2.4,1.68c0,0.99,0.63,1.75,1.9,1.75c1.2,0,1.94-0.57,2.38-1.01V79.52z"/>
			<path class="st0" d="M207.96,84.63c-1.42,0-1.99-0.87-1.99-2.03V68.95h1.92v12.8c0,0.9,0.22,1.13,0.81,1.13
				c0.13,0,0.33,0,0.61-0.08l0.24,1.42C208.98,84.53,208.5,84.63,207.96,84.63z"/>
		</g>
		<g>
			<path class="st0" d="M122.35,63.18c-9.32,0-14.61-6.37-14.61-14.44c0-8.19,6.16-14.87,15.91-14.87c2.91,0,5.59,0.57,7.46,1.52
				l-0.08,5.29c-2.52-1.47-4.9-1.99-7.16-1.99c-6.72,0-9.67,4.68-9.67,9.62c0,5.46,3.51,9.76,9.15,9.76c2.64,0,4.9-0.74,7.11-1.95
				l1.6,4.16C128.72,62.36,125.55,63.18,122.35,63.18z"/>
			<path class="st0" d="M146.93,47.58c-1.04-0.6-2.04-0.74-2.6-0.74c-1.22,0-2.34,0.44-3.77,1.61v14.31h-5.85V42.24h4.94l0.65,2.12
				c1.86-1.65,3.47-2.6,5.63-2.6c1,0,2.21,0.3,3.12,0.95L146.93,47.58z"/>
			<path class="st0" d="M164.31,62.75l-0.91-2c-1.39,1.26-3.47,2.43-6.16,2.43c-2.69,0-7.2-1.34-7.2-8.24v-12.7h5.85v12.4
				c0,2.3,1.13,3.95,3.64,3.95c1.35,0,2.52-0.65,3.43-1.35v-15h5.9v15.78c0,2.08,0,3.64,0.35,4.73H164.31z"/>
			<path class="st0" d="M171.2,62.75l9.19-16.13l-7.24,0.13l-1.21-4.51h16.99l-9.02,16.08l8.93-0.13v4.55H171.2z"/>
			<path class="st0" d="M195.61,54.12c0.13,2.77,2.73,4.42,5.47,4.42c1.99,0,3.51-0.39,5.5-1.43l1.34,3.73
				c-2.56,1.73-5.37,2.34-7.8,2.34c-7.37,0-10.4-5.2-10.4-10.58c0-5.81,3.47-10.84,9.63-10.84c5.64,0,9.53,4.2,9.53,10.58
				c0,0.39,0,0.99,0,1.78H195.61z M199.16,46.06c-2.34,0-3.68,2.17-3.68,4.03h7.41C202.76,48.14,201.67,46.06,199.16,46.06z"/>
			<path class="st0" d="M215.46,39.43c-1.99,0-3.55-1.52-3.55-3.42c0-1.91,1.56-3.43,3.55-3.43c2.04,0,3.56,1.47,3.56,3.43
				C219.02,37.87,217.5,39.43,215.46,39.43z M212.51,62.75V42.24h5.9v20.51H212.51z"/>
			<path class="st0" d="M235.19,47.58c-1.04-0.6-2.03-0.74-2.6-0.74c-1.21,0-2.34,0.44-3.77,1.61v14.31h-5.85V42.24h4.94l0.65,2.12
				c1.87-1.65,3.47-2.6,5.64-2.6c1,0,2.21,0.3,3.13,0.95L235.19,47.58z"/>
			<path class="st0" d="M255.03,60.11c-1.86,1.91-4.51,3.08-7.72,3.08c-2.99,0-5.5-0.91-7.28-2.56c-2.12-1.91-3.29-4.72-3.29-7.98
				c0-3.12,1.12-5.9,3.04-7.85c1.86-1.91,4.47-3.04,7.54-3.04c3.34,0,6.08,1.13,7.89,3.08c1.82,1.91,2.73,4.55,2.73,7.54
				C257.93,55.42,256.94,58.2,255.03,60.11z M247.23,46.36c-3.08,0-4.51,2.65-4.51,6.16c0,3.68,1.73,6.2,4.64,6.2
				c3.12,0,4.55-2.69,4.55-6.2C251.91,48.83,250.18,46.36,247.23,46.36z"/>
			<path class="st0" d="M281.42,63.18c-6.29,0-11.36-3.69-11.36-10.58c0-6.37,4.72-10.84,11.61-10.84c0.91,0,1.65,0.04,2.38,0.13
				v-9.84h5.85v29.39C287.75,62.53,285.11,63.18,281.42,63.18z M284.07,46.58c-0.65-0.13-1.21-0.22-2.21-0.22
				c-3.6,0-5.94,2.21-5.94,5.94c0,3.42,2.38,6.03,5.94,6.03c0.78,0,1.6-0.09,2.21-0.21V46.58z"/>
			<path class="st0" d="M311.12,60.11c-1.86,1.91-4.51,3.08-7.72,3.08c-2.99,0-5.5-0.91-7.28-2.56c-2.12-1.91-3.3-4.72-3.3-7.98
				c0-3.12,1.13-5.9,3.04-7.85c1.86-1.91,4.46-3.04,7.54-3.04c3.34,0,6.07,1.13,7.89,3.08c1.82,1.91,2.73,4.55,2.73,7.54
				C314.02,55.42,313.03,58.2,311.12,60.11z M303.31,46.36c-3.08,0-4.51,2.65-4.51,6.16c0,3.68,1.73,6.2,4.64,6.2
				c3.12,0,4.55-2.69,4.55-6.2C308,48.83,306.26,46.36,303.31,46.36z"/>
			<path class="st0" d="M333.86,63.18c-4.11,0-7.06-1.34-9.1-2.69l2.3-4.29c1.78,1.17,3.95,2.21,6.55,2.21
				c2.08,0,4.42-0.78,4.42-2.95c0-3.77-6.94-4.42-10.4-8.37c-1.08-1.26-1.83-2.86-1.83-5.07c0-4.33,3.43-8.15,9.71-8.15
				c3.04,0,5.55,0.78,7.2,1.74l-0.09,5.11c-2.43-1.3-4.46-2.08-6.8-2.08c-2.13,0-3.77,0.95-3.77,2.6c0,4.94,12.27,4.51,12.27,13.49
				C344.31,59.93,339.71,63.18,333.86,63.18z"/>
			<path class="st0" d="M361.39,62.75l-0.91-2c-1.39,1.26-3.47,2.43-6.16,2.43c-2.69,0-7.19-1.34-7.19-8.24v-12.7h5.85v12.4
				c0,2.3,1.13,3.95,3.65,3.95c1.34,0,2.51-0.65,3.42-1.35v-15h5.9v15.78c0,2.08,0,3.64,0.34,4.73H361.39z"/>
			<path class="st0" d="M375.13,63.18c-3.69,0-5.07-2.08-5.07-4.77V32.06h5.9v23.8c0,1.39,0.21,2.04,1.25,2.04
				c0.39,0,0.87-0.04,1.65-0.22l0.73,4.38C377.9,62.97,376.39,63.18,375.13,63.18z"/>
		</g>
	</g>
	<path class="st0" d="M81.4,86.4c-1.31-3.52-2.92-7.87-4.28-12.37c-2.56-8.44-4.69-16.59-4.63-16.63
		c1.64-1.09,16.32-11.07,26.93-17.12c0.17-0.1,3.28-1.84,3.58-4.02c0.07-0.6,0-1.19-0.19-1.75c-0.53-1.59-1.88-3.01-5.65-3.25
		c-2.96-0.22-8.14-0.54-13.86-0.23c-5.58,0.19-11.55,0.8-16.01,1.55c0,0-1.78-10.93-2.42-15.42c-0.04-0.28-0.34-1.99-0.79-2.71
		c-0.47-0.74-1.23-1.43-2.48-1.65c-1.34-0.24-2.3,0.11-2.97,0.59c-0.7,0.5-1.62,1.87-1.87,2.22c-2.85,4-10.85,15.82-14.85,22.58
		c0,0-12.46,3.83-20.05,6.98c-2.24,0.93-2.45,2.05-2.51,2.65c-0.04,0.44-0.02,1.58,1.75,3.07c2.21,1.86,9.16,7.59,9.16,7.59
		c-2.46,3.88-11.89,23.14-12.81,28.5c-0.26,1.55-0.24,3.14,0.88,4.61c0.7,0.92,1.97,1.56,3.29,1.6c1.61,0.03,3.8-1.68,4.74-2.34
		c7.51-5.38,22.18-16.63,22.18-16.63c5.52,4.96,17.19,15.65,23.37,21.38c0.72,0.67,3,2.79,5.22,2.83c4.23,0.12,5.59-3.5,5.8-4.75
		C83.27,90.77,81.83,87.55,81.4,86.4z M24.02,48.69c-0.18-0.14-0.73-0.56-0.7-1.12c0.02-0.26,0.17-0.53,0.5-0.75
		c0.13-0.09,0.59-0.28,0.68-0.32c1.31-0.48,7.13-2.58,15.06-4.49c-2.05,3.58-3.42,5.81-4.38,7.49c-2.21,3.87-2.2,4.02-3.11,5.6
		C32.08,55.09,25.6,49.97,24.02,48.69z M27.59,79.67c-0.2,0.13-0.97,0.65-1.18,0.76c-1.66,0.81-2-0.18-2.11-0.6
		c-0.2-0.81,0.5-2.26,0.57-2.43c1.58-3.43,7.92-16.83,7.92-16.83s7.85,6.7,9.79,8.41C42.57,68.99,31.23,77.18,27.59,79.67z
		 M68.17,74.73c1.31,4.48,2.81,9.16,3.55,11.45c0.2,0.59,0.23,1.17,0.03,1.52c-0.19,0.33-0.59,0.46-1.11,0.22
		c-0.22-0.1-0.85-0.6-0.91-0.65c-2.86-2.52-17.7-15.54-17.7-15.54l12.81-9.06C64.84,62.65,66.5,69,68.17,74.73z M45.91,66.49
		c0,0-10.74-8.94-11.31-9.42c0,0,6.8-12.75,8.92-15.99c1.3-0.36,11.28-2.2,15.99-2.75c0,0,1.4,7.74,3.49,16.65
		C62.99,54.98,49.17,64.15,45.91,66.49z M75.79,36.83c4.6-0.22,9.46-0.26,9.86-0.26c1.16,0.01,2.12,0.12,2.3,0.63
		c0.24,0.66-0.29,1.44-1.12,2.03c-0.18,0.13-2.95,1.95-5.92,3.96c-4.55,3.07-10.23,6.78-10.23,6.78c0.03,0.11-2.17-9.91-2.59-12.59
		C68.09,37.38,71.89,37.02,75.79,36.83z M54.87,23.77c0.1-0.12,0.86-1.08,1.41-1.08c0.55,0,0.77,0.66,0.83,1.04
		c0.14,0.84,0.31,2.06,0.63,4.05c0.47,2.91,1.04,6.27,1.04,6.27c-3.07,0.6-10.43,2.33-12.85,3.03
		C48.5,32.84,53.31,25.76,54.87,23.77z"/>
</g>
</svg>
